# xmcd
#
# Track frame offsets:
#	150
#	17434
#	29520
#	46420
#	64339
#	77442
#	90577
#	104079
#	118000
#	128348
#	143357
#	158828
#	172450
#	184268
#	196415
#	214610
#	229260
#	245702
#	255932
#	266977
#	282628
#	297641
#
# Disc length: 4156 seconds
#
# Revision: 1
# Processed by: cddbd v1.5.2PL0 Copyright (c) Steve Scherf et al.
# Submitted via: EZCDAudioConverter 7.0.6.1
#
DISCID=4b103a16
DTITLE=Marcus (Rusty Evans) - Marcus (1969) 2/2
DYEAR=1967
DGENRE=
TTITLE0=Go Together [Alternate With Band and Chorus]
TTITLE1=Time Of Our Time [Alternate With Band]
TTITLE2=Helene [Alternate]
TTITLE3=Grains Of Sand [Alternate With Sitar]
TTITLE4=High Priestess [Alternate]
TTITLE5=Earth Child [Alternate]
TTITLE6=The Coming [Alternate]
TTITLE7=Royal Maze [Alternate With Band Funky]
TTITLE8=White Cloud [Alternate With Band]
TTITLE9=Butterfly Girl [Alternate]
TTITLE10=Color Song [Key Like LP]
TTITLE11=Children Of Aquarius [Alternate With Band]
TTITLE12=Go Together [Alternate]
TTITLE13=Time Of Our Time [Alternate]
TTITLE14=Grains Of Sand [Alternate]
TTITLE15=Butterfly Girl [Alternate With Band]
TTITLE16=Color Song [Alternate Key]
TTITLE17=White Cloud [Alternate]
TTITLE18=Royal Maze [Alternate]
TTITLE19=Color Song [Alternate]
TTITLE20=Butterfly Girl [Alternate]
TTITLE21=Children Of Aquarius [Demo]
EXTD=
EXTT0=
EXTT1=
EXTT2=
EXTT3=
EXTT4=
EXTT5=
EXTT6=
EXTT7=
EXTT8=
EXTT9=
EXTT10=
EXTT11=
EXTT12=
EXTT13=
EXTT14=
EXTT15=
EXTT16=
EXTT17=
EXTT18=
EXTT19=
EXTT20=
EXTT21=
PLAYORDER=
